<svg xmlns="http://www.w3.org/2000/svg" width="619" height="1189" viewBox="0 0 619 1189">
  <!-- 跑車：流線窄鼻 + 外擴後輪拱 -->
  <path fill="#ffffff"
    d="M 310 80
       C 274 108, 254 170, 246 250
       C 240 330, 236 420, 238 520
       C 240 640, 236 700, 222 780
       C 208 812, 200 852, 204 908
       C 208 978, 226 1040, 264 1072
       C 292 1096, 328 1096, 356 1072
       C 394 1040, 412 978, 416 908
       C 420 852, 412 812, 398 780
       C 384 700, 380 640, 382 520
       C 384 420, 380 330, 374 250
       C 366 170, 346 108, 310 80 Z"/>
</svg>
